<?xml version="1.0" encoding="UTF-8"?>
<svg id="Layer_1" xmlns="http://www.w3.org/2000/svg" version="1.1" viewBox="0 0 909.57 543.99">
  <!-- Generator: Adobe Illustrator 29.6.1, SVG Export Plug-In . SVG Version: 2.1.1 Build 9)  -->
  <defs>
    <style>
      .st0 {
        fill: #ad4242;
      }

      .st1 {
        fill: #e2e2e2;
      }

      .st2 {
        fill: #d3d3d3;
      }

      .st3 {
        fill: #d34e4a;
      }
    </style>
  </defs>
  <g id="Objects">
    <g>
      <polygon class="st3" points="799.28 71.66 831.46 71.66 909.39 488.37 0 488.37 77.94 71.66 110.11 71.66 799.28 71.66"/>
      <path class="st2" d="M767.97,46.3h26.77l74.4,414.48c-221.09-12.91-414.44,14.5-414.44,14.5,0,0-193.34-27.41-414.44-14.5L114.66,46.3h26.77l314.5,19.02,312.03-19.02Z"/>
      <path class="st0" d="M909.39,488.37v39.5h-426.77c-5.57,9.63-15.99,16.12-27.92,16.12s-22.34-6.49-27.92-16.12H0v-39.5h909.39Z"/>
      <path class="st1" d="M454.7,52.38v419.8c-2.03-.92-4.09-1.83-6.17-2.74-69.03-29.97-158.91-47.27-255.81-47.27-42.96,0-81.2,2.98-114.79,7.68L145.9,19.34c125.93-31.36,216.79-15.84,302.63,29.7,2.05,1.1,4.11,2.2,6.17,3.33Z"/>
      <path class="st1" d="M831.45,429.85c-33.58-4.7-71.82-7.68-114.78-7.68-96.73,0-186.48,17.24-255.45,47.12-2.2.95-4.37,1.91-6.53,2.89V52.38c2.17-1.2,4.35-2.37,6.53-3.52,85.74-45.39,176.51-60.84,302.27-29.51l67.96,410.51Z"/>
      <path class="st2" d="M461.22,48.85v420.43c-2.2.95-4.37,1.91-6.53,2.89-2.03-.92-4.09-1.83-6.17-2.74V49.04c2.05,1.1,4.11,2.2,6.17,3.33,2.17-1.2,4.35-2.37,6.53-3.52Z"/>
    </g>
  </g>
</svg>